<?xml version="1.0" encoding="UTF-8" standalone="no"?>
<!DOCTYPE svg PUBLIC "-//W3C//DTD SVG 1.1//EN"
 "http://www.w3.org/Graphics/SVG/1.1/DTD/svg11.dtd">
<!-- Generated by graphviz version 2.40.1 (20161225.0304)
 -->
<!-- Title: D Pages: 1 -->
<svg width="243pt" height="235pt"
 viewBox="0.00 0.00 243.39 234.72" xmlns="http://www.w3.org/2000/svg" xmlns:xlink="http://www.w3.org/1999/xlink">
<g id="graph0" class="graph" transform="scale(1 1) rotate(0) translate(4 230.7203)">
<title>D</title>
<!-- 1 -->
<g id="node1" class="node">
<title>1</title>
<ellipse fill="none" stroke="#ffffff" cx="27" cy="-172.296" rx="27" ry="18"/>
<text text-anchor="middle" x="27" y="-168.596" font-family="Times,serif" font-size="14.00" fill="#ffffff">1</text>
</g>
<!-- 2 -->
<g id="node2" class="node">
<title>2</title>
<ellipse fill="none" stroke="#ffffff" cx="27" cy="-54.4243" rx="27" ry="18"/>
<text text-anchor="middle" x="27" y="-50.7243" font-family="Times,serif" font-size="14.00" fill="#ffffff">2</text>
</g>
<!-- 1&#45;&gt;2 -->
<g id="edge1" class="edge">
<title>1&#45;&gt;2</title>
<path fill="none" stroke="#ffffff" d="M27,-154.1369C27,-135.157 27,-105.1104 27,-82.9567"/>
<polygon fill="#ffffff" stroke="#ffffff" points="30.5001,-82.7983 27,-72.7983 23.5001,-82.7983 30.5001,-82.7983"/>
</g>
<!-- 3 -->
<g id="node3" class="node">
<title>3</title>
<ellipse fill="none" stroke="#ffffff" cx="139.1026" cy="-208.7203" rx="27" ry="18"/>
<text text-anchor="middle" x="139.1026" y="-205.0203" font-family="Times,serif" font-size="14.00" fill="#ffffff">3</text>
</g>
<!-- 1&#45;&gt;3 -->
<g id="edge2" class="edge">
<title>1&#45;&gt;3</title>
<path fill="none" stroke="#ffffff" d="M51.3246,-180.1995C67.043,-185.3068 87.7248,-192.0267 105.0649,-197.6608"/>
<polygon fill="#ffffff" stroke="#ffffff" points="104.2333,-201.0707 114.8255,-200.8322 106.3965,-194.4133 104.2333,-201.0707"/>
</g>
<!-- 4 -->
<g id="node4" class="node">
<title>4</title>
<ellipse fill="none" stroke="#ffffff" cx="208.3858" cy="-113.3602" rx="27" ry="18"/>
<text text-anchor="middle" x="208.3858" y="-109.6602" font-family="Times,serif" font-size="14.00" fill="#ffffff">4</text>
</g>
<!-- 1&#45;&gt;4 -->
<g id="edge3" class="edge">
<title>1&#45;&gt;4</title>
<path fill="none" stroke="#ffffff" d="M51.4625,-164.3476C83.1946,-154.0373 138.7112,-135.9988 174.49,-124.3736"/>
<polygon fill="#ffffff" stroke="#ffffff" points="175.5929,-127.6954 184.0219,-121.2765 173.4298,-121.038 175.5929,-127.6954"/>
</g>
<!-- 5 -->
<g id="node5" class="node">
<title>5</title>
<ellipse fill="none" stroke="#ffffff" cx="139.1026" cy="-18" rx="27" ry="18"/>
<text text-anchor="middle" x="139.1026" y="-14.3" font-family="Times,serif" font-size="14.00" fill="#ffffff">5</text>
</g>
<!-- 2&#45;&gt;5 -->
<g id="edge4" class="edge">
<title>2&#45;&gt;5</title>
<path fill="none" stroke="#ffffff" d="M51.3246,-46.5208C67.043,-41.4136 87.7248,-34.6937 105.0649,-29.0595"/>
<polygon fill="#ffffff" stroke="#ffffff" points="106.3965,-32.3071 114.8255,-25.8881 104.2333,-25.6497 106.3965,-32.3071"/>
</g>
<!-- 3&#45;&gt;2 -->
<g id="edge7" class="edge">
<title>3&#45;&gt;2</title>
<path fill="none" stroke="#ffffff" d="M127.3175,-192.4996C107.689,-165.4832 68.176,-111.0982 45.0291,-79.2392"/>
<polygon fill="#ffffff" stroke="#ffffff" points="47.674,-76.9251 38.9646,-70.8922 42.0109,-81.0396 47.674,-76.9251"/>
</g>
<!-- 3&#45;&gt;4 -->
<g id="edge8" class="edge">
<title>3&#45;&gt;4</title>
<path fill="none" stroke="#ffffff" d="M151.1708,-192.1099C161.9997,-177.2052 178.0411,-155.1261 190.385,-138.1361"/>
<polygon fill="#ffffff" stroke="#ffffff" points="193.4096,-139.9277 196.4559,-129.7803 187.7464,-135.8132 193.4096,-139.9277"/>
</g>
<!-- 4&#45;&gt;5 -->
<g id="edge6" class="edge">
<title>4&#45;&gt;5</title>
<path fill="none" stroke="#ffffff" d="M196.3176,-96.7497C185.4887,-81.845 169.4474,-59.766 157.1034,-42.776"/>
<polygon fill="#ffffff" stroke="#ffffff" points="159.742,-40.4531 151.0325,-34.4201 154.0788,-44.5676 159.742,-40.4531"/>
</g>
<!-- 5&#45;&gt;1 -->
<g id="edge5" class="edge">
<title>5&#45;&gt;1</title>
<path fill="none" stroke="#ffffff" d="M127.3175,-34.2207C107.689,-61.2372 68.176,-115.6221 45.0291,-147.4811"/>
<polygon fill="#ffffff" stroke="#ffffff" points="42.0109,-145.6807 38.9646,-155.8282 47.674,-149.7953 42.0109,-145.6807"/>
</g>
</g>
</svg>
